<svg width="119" height="120" viewBox="0 0 119 120" fill="none" xmlns="http://www.w3.org/2000/svg">
<path d="M59.4996 0.714279C26.7739 0.714279 0.213867 27.2743 0.213867 60C0.213867 92.7257 26.7739 119.286 59.4996 119.286C92.2253 119.286 118.785 92.7257 118.785 60C118.785 27.2743 92.2253 0.714279 59.4996 0.714279ZM43.4331 85.4336L22.1496 64.15C19.8374 61.8378 19.8374 58.1028 22.1496 55.7907C24.4617 53.4786 28.1967 53.4786 30.5089 55.7907L47.6424 72.865L88.431 32.0764C90.7431 29.7643 94.4781 29.7643 96.7903 32.0764C99.1024 34.3886 99.1024 38.1236 96.7903 40.4357L51.7924 85.4336C49.5396 87.7457 45.7453 87.7457 43.4331 85.4336Z" fill="#1DE782"/>
</svg>
